<svg height="67" viewBox="0 0 67 67" width="67" xmlns="http://www.w3.org/2000/svg">
    <path d="M45.47 24.535c-.028.04-2.376 3.43-8.153 5.79.34.698.67 1.408.973 2.122.108.256.214.507.316.758 5.027-.633 9.98.43 10.19.475-.033-3.47-1.275-6.652-3.327-9.145zm-5.972 10.98c1.92 5.273 2.7 9.57 2.848 10.45 3.285-2.216 5.62-5.736 6.27-9.814-.302-.097-4.395-1.393-9.118-.636zm.383 11.788c-.215-1.28-1.065-5.76-3.124-11.11-.033.01-.065.02-.098.032-8.633 3.008-11.453 9.074-11.483 9.14 2.484 1.933 5.6 3.1 8.994 3.1 2.025-.002 3.955-.415 5.71-1.162zm-3.69-19.16c5.522-2.068 7.606-5.24 7.642-5.295-2.576-2.27-5.96-3.65-9.663-3.65-1.19 0-2.344.145-3.45.41.22.295 2.968 3.94 5.47 8.536zm-.432 5.624c-.367-.832-.768-1.665-1.187-2.487-7.534 2.256-14.763 2.094-15.022 2.084-.004.157-.012.31-.012.467 0 3.76 1.418 7.188 3.75 9.777-.006-.006 4-7.11 11.895-9.665.19-.063.386-.12.578-.175zm15.196-3.386c.23 1.128.35 2.29.35 3.45 0 1.16-.118 2.32-.35 3.45-.226 1.102-.56 2.185-1 3.22-.427 1.016-.958 1.996-1.58 2.91-.61.908-1.315 1.76-2.09 2.536-.775.772-1.628 1.476-2.534 2.092-.916.617-1.896 1.147-2.91 1.58-1.036.436-2.12.77-3.22.996-1.13.233-2.29.352-3.45.352-1.163 0-2.324-.118-3.452-.352-1.102-.226-2.186-.56-3.22-.997-1.016-.432-1.996-.962-2.912-1.58-.906-.614-1.76-1.318-2.533-2.09-.775-.778-1.48-1.63-2.092-2.537-.617-.914-1.15-1.895-1.58-2.91-.437-1.035-.773-2.118-1-3.22-.23-1.13-.346-2.29-.346-3.45 0-1.16.117-2.322.347-3.45.228-1.102.563-2.186 1-3.22.43-1.017.963-1.997 1.58-2.91.613-.91 1.318-1.76 2.093-2.537.774-.773 1.627-1.475 2.533-2.09.916-.62 1.896-1.15 2.912-1.582 1.034-.437 2.118-.772 3.22-.997 1.128-.23 2.29-.348 3.45-.348 1.16 0 2.322.117 3.452.348 1.1.225 2.184.56 3.22.998 1.015.432 1.994.964 2.91 1.584.906.614 1.76 1.316 2.535 2.09.773.776 1.48 1.626 2.09 2.535.62.913 1.152 1.893 1.58 2.91.44 1.034.774 2.118 1 3.22zM33.36 29.028c-2.534-4.5-5.24-8.172-5.435-8.432-4.08 1.927-7.126 5.688-8.076 10.22.385.002 6.483.08 13.51-1.788zM34 64C17.432 64 4 50.568 4 34 4 17.43 17.432 4 34 4s30 13.43 30 30c0 16.568-13.432 30-30 30z" fill-rule="evenodd" clip-rule="evenodd" fill="#EC4A89"/>
</svg>
