<svg height="67" viewBox="0 0 67 67" width="67" xmlns="http://www.w3.org/2000/svg">
    <path d="M21.543 34.568c-.054 0 .592 1.367.61 1.367 1.41 2.516 4.128 4.08 8.713 4.514-.654.487-1.44 1.413-1.55 2.483-.822.523-2.477.696-3.763.297-1.803-.56-2.493-4.066-5.192-3.566-.583.107-.467.486.038.81.823.522 1.597 1.177 2.194 2.57.46 1.07 1.423 2.98 4.473 2.98 1.21 0 2.058-.142 2.058-.142s.023 2.73.023 3.793c0 1.225-1.682 1.57-1.682 2.16 0 .232.557.254 1.004.254.884 0 2.723-.726 2.723-2 0-1.01.018-4.41.018-5.005 0-1.3.71-1.712.71-1.712s.087 6.94-.17 7.872c-.302 1.094-.847.94-.847 1.427 0 .726 2.215.18 2.95-1.416.566-1.24.318-8.05.318-8.05l.605-.012s.034 3.117.013 4.542c-.02 1.476-.122 3.342.77 4.222.586.58 2.484 1.594 2.484.666 0-.54-1.04-.982-1.04-2.44v-6.716c.83 0 .706 2.208.706 2.208l.06 4.103s-.183 1.493 1.646 2.118c.645.223 2.025.283 2.09-.09.065-.373-1.662-.928-1.678-2.084-.01-.707.032-1.12.032-4.187 0-3.068-.42-4.202-1.88-5.106 4.508-.454 7.3-1.55 8.658-4.485.106.003.555-1.37.496-1.37.305-1.11.47-2.42.502-3.972-.008-4.21-2.058-5.7-2.45-6.398.58-3.187-.1-4.637-.413-5.135-1.163-.406-4.042 1.045-5.616 2.067-2.564-.737-7.986-.666-10.02.19-3.75-2.64-5.735-2.235-5.735-2.235s-1.284 2.26-.34 5.565c-1.234 1.546-2.154 2.64-2.154 5.54 0 1.633.196 3.095.637 4.37zM34 64C17.432 64 4 50.568 4 34 4 17.43 17.432 4 34 4s30 13.43 30 30c0 16.568-13.432 30-30 30z" fill-rule="evenodd" clip-rule="evenodd" fill="#333"/>
</svg>
