<svg height="67" viewBox="0 0 67 67" width="67" xmlns="http://www.w3.org/2000/svg">
    <path d="M43.27 26.578v-.006c.503 0 1.006.01 1.51-.002.645-.016 1.17-.57 1.17-1.217v-2.89c0-.69-.546-1.24-1.235-1.24-.96 0-1.922-.002-2.883 0-.688 0-1.236.55-1.236 1.242 0 .955-.004 1.91.003 2.865 0 .143.027.29.072.426.173.508.64.82 1.21.823l1.39-.002zM34 27.818c-3.384-.003-6.135 2.72-6.182 6.088-.05 3.46 2.72 6.2 6.04 6.272 3.454.074 6.248-2.686 6.32-6.043.076-3.46-2.716-6.32-6.178-6.318zm-11.954 3.298v13.627c0 .65.562 1.208 1.212 1.208 7.16.002 14.32.002 21.48 0 .655 0 1.214-.556 1.214-1.21V31.116H43.04c.41 1.314.537 2.65.376 4.014-.16 1.364-.6 2.632-1.316 3.804s-1.644 2.145-2.78 2.918c-2.943 2.006-6.82 2.182-9.945.428-1.58-.885-2.82-2.12-3.685-3.713-1.29-2.373-1.495-4.865-.74-7.45h-2.904zm24.16 18.14c.158-.027.317-.05.474-.084 1.246-.265 2.264-1.304 2.508-2.557.025-.137.045-.273.067-.41v-24.41c-.02-.134-.04-.27-.065-.402-.268-1.367-1.396-2.428-2.78-2.618-.058-.007-.113-.02-.17-.03H21.76c-.146.027-.295.047-.44.08-1.352.308-2.352 1.396-2.545 2.766-.008.058-.02.115-.03.172V46.24c.03.154.05.31.086.465.3 1.322 1.428 2.347 2.77 2.52.065.008.13.02.196.03h24.41zM34 64C17.432 64 4 50.568 4 34 4 17.43 17.432 4 34 4s30 13.43 30 30c0 16.568-13.432 30-30 30z" fill-rule="evenodd" clip-rule="evenodd" fill="#517FA6"/>
</svg>
