<svg height="67" viewBox="0 0 67 67" width="67" xmlns="http://www.w3.org/2000/svg">
    <path d="M45.164 46.268h5.104c0-14.633-11.904-26.545-26.535-26.545v5.09c11.814 0 21.43 9.626 21.43 21.455zm-17.898.01c1.957 0 3.538-1.573 3.538-3.522 0-1.938-1.58-3.528-3.538-3.528-1.95 0-3.533 1.59-3.533 3.528 0 1.95 1.583 3.52 3.533 3.52zm8.877-.008h5.11c0-9.664-7.862-17.525-17.52-17.525v5.088c3.312 0 6.428 1.295 8.773 3.643 2.344 2.34 3.637 5.47 3.637 8.794zM34 64C17.432 64 4 50.568 4 34 4 17.43 17.432 4 34 4s30 13.43 30 30c0 16.568-13.432 30-30 30z" fill-rule="evenodd" clip-rule="evenodd" fill="#E19126"/>
</svg>
