<?xml version="1.0" encoding="utf-8"?>
<!-- Generator: Adobe Illustrator 16.0.3, SVG Export Plug-In . SVG Version: 6.00 Build 0)  -->
<!DOCTYPE svg PUBLIC "-//W3C//DTD SVG 1.1//EN" "http://www.w3.org/Graphics/SVG/1.1/DTD/svg11.dtd">
<svg version="1.1" id="Layer_1" xmlns="http://www.w3.org/2000/svg" xmlns:xlink="http://www.w3.org/1999/xlink" x="0px" y="0px"
	 width="41px" height="50px" viewBox="-335.5 382.5 41 50" enable-background="new -335.5 382.5 41 50" xml:space="preserve">
<g>
	<title>Layer 1</title>
	<g id="svg_1">
		<path fill="#B5B5B5" d="M-301.258,409.064c0.071,7.566,6.685,10.085,6.758,10.116c-0.056,0.178-1.057,3.589-3.485,7.111
			c-2.098,3.047-4.276,6.081-7.708,6.145c-3.371,0.061-4.456-1.986-8.31-1.986c-3.854,0-5.058,1.923-8.25,2.047
			c-3.311,0.125-5.834-3.293-7.949-6.328c-4.324-6.207-7.628-17.541-3.192-25.191c2.205-3.799,6.144-6.205,10.42-6.267
			c3.252-0.062,6.322,2.173,8.31,2.173c1.987,0,5.717-2.688,9.639-2.293c1.641,0.068,6.25,0.658,9.209,4.96
			C-296.055,399.698-301.315,402.738-301.258,409.064 M-307.595,390.484c1.758-2.114,2.941-5.056,2.619-7.983
			c-2.534,0.102-5.599,1.678-7.417,3.789c-1.63,1.871-3.057,4.865-2.671,7.734C-312.24,394.241-309.354,392.599-307.595,390.484"/>
	</g>
</g>
</svg>
