<?xml version="1.0" encoding="UTF-8" standalone="no"?>
<svg width="40px" height="40px" viewBox="0 0 40 40" version="1.1" xmlns="http://www.w3.org/2000/svg" xmlns:xlink="http://www.w3.org/1999/xlink" xmlns:sketch="http://www.bohemiancoding.com/sketch/ns">
    <!-- Generator: Sketch 3.3.3 (12081) - http://www.bohemiancoding.com/sketch -->
    <title>icon_keurmerk</title>
    <desc>Created with Sketch.</desc>
    <defs></defs>
    <g id="Groente--en-Fruitkalender" stroke="none" stroke-width="1" fill="none" fill-rule="evenodd" sketch:type="MSPage">
        <circle id="Oval-129" fill="#BED600" sketch:type="MSShapeGroup" cx="20" cy="20" r="20"></circle>
        <path d="M29.701795,28.4374155 C29.8363204,28.3265274 29.9945496,28.2213178 30.1796535,28.1195331 C30.580921,27.9082771 30.8333258,27.7050395 30.9672066,27.5207057 C31.1361911,27.2880394 31.1194504,27.0644592 30.8892638,26.5100542 C30.8948992,26.5236269 30.7703924,26.2286499 30.7363551,26.143054 C30.7355095,26.1409275 30.734667,26.1388053 30.7338277,26.1366876 L25.2640362,25.7814141 C24.7129128,25.7456176 24.2951578,25.269825 24.3309543,24.7187015 C24.3667508,24.1675781 24.8425434,23.7498231 25.3936669,23.7856196 L31.1625849,24.1603218 C32.1490627,23.3856821 32.1413695,23.1771934 31.6277125,22.5435338 C31.5936108,22.501465 31.3910509,22.2589538 31.3325466,22.1855582 C31.2660863,22.1021813 31.2083848,22.0251921 31.1573955,21.9495446 L25.3427553,21.654363 C24.7911809,21.6263622 24.3667405,21.1565236 24.3947414,20.6049491 C24.4227422,20.0533747 24.8925808,19.6289343 25.4441552,19.6569352 L31.4052716,19.9595527 L31.4052716,19.9595527 C31.4300124,19.9401955 31.4555772,19.9212811 31.4819652,19.9028333 C32.3079568,19.3253838 32.7835581,18.8292917 32.9621449,18.4477008 C33.0504413,18.2590357 33.0463793,18.1697695 32.9861733,18.0675009 C32.8246947,17.7932058 32.250361,17.4817986 31.9400419,17.4251483 C31.7205051,17.3850708 30.3015376,17.4046923 27.5630775,17.4802278 C27.4419898,17.4835713 27.4419898,17.4835713 27.3209651,17.4869225 C25.4184125,17.539627 24.7996398,17.5551815 24.1036717,17.5641264 C22.549451,17.5841019 21.6032526,16.84694 21.6286954,15.640838 C21.6359646,15.2962493 21.7247116,14.9678342 21.8640576,14.649134 C21.9456735,14.4624691 22.0287729,14.3141811 22.0947935,14.212962 L22.0337232,14.3206107 C22.1035555,14.1775526 22.2280403,13.9160088 22.3888291,13.5669527 C22.657261,12.9842142 22.9256729,12.3752568 23.1755445,11.7716902 C23.3063918,11.4556277 23.4287742,11.1490153 23.541129,10.8546124 C24.0157532,9.61095627 24.2818716,8.64634572 24.2661184,8.23639714 C24.2401116,7.55962119 23.7367429,6.47716707 23.2457543,6.15076863 C22.8451491,5.88445507 22.2612001,6.23565973 21.3175567,8.20008851 L21.3882841,8.00156574 C20.5593586,11.4382371 18.0889846,14.4020167 14.5157829,16.9309082 C12.9901514,18.0106559 11.3612113,18.9389705 9.73251117,19.7174714 C9.16221025,19.990069 8.63183904,20.2248342 8.15441737,20.4216973 C7.86419343,20.5413701 7.65333721,20.6227795 7.53491333,20.6657809 C7.0157928,20.8542811 6.44215286,20.5862604 6.25365266,20.0671399 C6.06515246,19.5480194 6.33317318,18.9743794 6.8522937,18.7858792 C6.944635,18.7523488 7.12896347,18.6811815 7.39199811,18.5727201 C7.83667407,18.3893595 8.33378307,18.1693176 8.86999931,17.9130121 C10.4027767,17.1803612 11.9353143,16.3069853 13.3603952,15.2984011 C16.5754139,13.0230094 18.7486303,10.4157386 19.4440402,7.53261395 L19.5147676,7.33409118 C20.9109544,4.42758059 22.6725472,3.3681053 24.3529761,4.4852177 C25.432344,5.2027578 26.215757,6.88742469 26.2646433,8.15959896 C26.2944784,8.93599876 25.9825813,10.0665449 25.409679,11.5677187 C25.2903695,11.8803451 25.1611367,12.2041202 25.0234485,12.5367072 C24.7627035,13.1665384 24.4840264,13.798785 24.2053692,14.4037215 C24.0379045,14.7672704 23.907081,15.0421318 23.8310229,15.197944 L23.7699526,15.3055927 C23.7599392,15.3209446 23.7289876,15.3761769 23.6965525,15.4503597 C23.6531509,15.5496241 23.6291944,15.6382767 23.6282506,15.6830188 C23.6290747,15.643953 23.592367,15.5541996 23.5253334,15.5019753 C23.5560855,15.5259335 23.7287051,15.5687804 24.077969,15.5642916 C24.7595214,15.555532 25.3758239,15.5400395 27.2655825,15.4876895 C27.3866912,15.4843359 27.3866912,15.4843359 27.507932,15.4809882 C30.7189033,15.3924193 31.8557079,15.3766996 32.2992159,15.4576642 C33.1266179,15.6087105 34.2031345,16.1924043 34.7096885,17.0528605 C35.4686101,18.3419998 34.9091734,19.7714818 33.1243162,21.1745403 C33.122374,21.1854576 33.1202561,21.1963103 33.1179657,21.2070955 C33.1456026,21.2404789 33.1685676,21.2683166 33.1813692,21.284109 C34.3218606,22.6910466 34.3241663,24.1106616 32.5439958,25.6116239 L32.5439958,25.6116239 C32.5703914,25.554351 32.5915662,25.4940518 32.6068741,25.4312938 C32.6347882,25.4987209 32.6757876,25.5972 32.7363809,25.7431391 C33.2070699,26.8767951 33.2724578,27.7500812 32.5854306,28.6960146 C32.2550383,29.1509152 31.7663003,29.5444496 31.127468,29.8805876 C30.9859932,29.9584075 30.9971073,29.9183952 31.0367402,30.4095768 C31.0771603,30.9105142 31.0790314,31.1720342 31.0056641,31.5303203 C30.824439,32.4153264 30.2095849,33.1006092 29.110675,33.6091837 L28.9462028,33.6853013 L28.7654787,33.6988584 C25.717508,33.9275019 21.3743444,33.5179684 15.3531772,32.6888952 C13.9474673,32.4953386 12.8132922,32.6215165 11.9352437,32.939311 C11.6126448,33.05607 11.4195743,33.1611531 11.3555646,33.2077226 C10.9089684,33.5326383 10.2835343,33.4339968 9.95861859,32.9874006 C9.63370283,32.5408043 9.73234435,31.9153703 10.1789406,31.5904545 C10.3898887,31.4369818 10.7481286,31.2420015 11.2545881,31.0586972 C12.4340768,30.6318017 13.8951164,30.4692599 15.6259894,30.7075892 C21.4878972,31.5147334 25.7666661,31.9181949 28.615869,31.704462 L28.2706727,31.7941366 C28.828842,31.5358163 29.0027217,31.3420194 29.0463218,31.1291003 C29.0696965,31.0149505 29.0687829,30.8872485 29.0432193,30.570432 C29.0378018,30.503291 29.0332873,30.4377678 29.0297768,30.3737908 L25.4049515,29.9608154 C24.8562165,29.8982982 24.4620592,29.4027804 24.5245764,28.8540454 C24.5870937,28.3053105 25.0826115,27.9111531 25.6313464,27.9736704 L29.701795,28.4374155 Z" id="Shape" fill="#FFFFFF" sketch:type="MSShapeGroup"></path>
    </g>
</svg>