<?xml version="1.0" encoding="UTF-8" standalone="no"?>
<svg width="25px" height="25px" viewBox="0 0 25 25" version="1.1" xmlns="http://www.w3.org/2000/svg" xmlns:xlink="http://www.w3.org/1999/xlink" xmlns:sketch="http://www.bohemiancoding.com/sketch/ns">
    <!-- Generator: Sketch 3.3.3 (12081) - http://www.bohemiancoding.com/sketch -->
    <title>icon_bereidingstip</title>
    <desc>Created with Sketch.</desc>
    <defs></defs>
    <g id="Groente--en-Fruitkalender" stroke="none" stroke-width="1" fill="none" fill-rule="evenodd" sketch:type="MSPage">
        <g id="Oval-124-Copy-3-+-Shape-Copy-2" sketch:type="MSLayerGroup">
            <circle id="Oval-124-Copy-3" fill="#BED603" sketch:type="MSShapeGroup" cx="12.5" cy="12.5" r="12.5"></circle>
            <path d="M11.7924398,9.09628478 C11.8471379,8.97058141 12.0136944,8.71717381 12.3031366,8.45441011 C12.6221795,8.16477399 13.0141349,7.94742008 13.4956598,7.82899354 C14.3310352,7.62354077 15.0098588,7.22570811 15.5339603,6.6930129 C16.0265932,6.19230229 16.2976326,5.68142978 16.4162713,5.29101609 C16.5768489,4.76259081 16.2786494,4.20404362 15.7502241,4.04346601 C15.2217989,3.8828884 14.6632517,4.18108786 14.502674,4.70951314 C14.4706774,4.81480685 14.3472263,5.04749544 14.1082937,5.29034593 C13.838206,5.56486224 13.4845484,5.77212748 13.0180121,5.88686772 C12.2015548,6.08766775 11.5158245,6.46793083 10.9588152,6.97359952 C10.4359218,7.44829679 10.1177693,7.93235015 9.95853678,8.29828742 C9.7381759,8.80470575 9.97007127,9.39387672 10.4764896,9.6142376 C10.9829079,9.83459849 11.5720789,9.60270311 11.7924398,9.09628478 L11.7924398,9.09628478 Z M5,15.9983345 C5,16.5548995 5.39469424,17 5.88456647,17 L11.2121766,17 C11.8662667,17 12.6360891,16.3218177 12.7952564,15.6041146 L13.5,13 L5,13 L5,15.9983345 Z M15.7123099,11.3879549 C15.5967295,11.1521319 15.3597773,11 15.0529992,11 L3.93399241,11 C3.41739148,11 3,11.4463856 3,11.9970301 L3,15.9983345 C3,17.6609799 4.24477594,19 5.78028488,19 L11.3514222,19 C12.8871611,19 14.4339366,17.6967841 14.8067557,16.0891858 L15.4138394,13.4714365 L21.1309962,12.4633475 C21.6667255,12.368884 22.0351343,11.8493016 21.939231,11.3054073 C21.8426592,10.7577211 21.3259788,10.3981136 20.7836998,10.493732 L15.7123099,11.3879549 Z" id="Shape-Copy-2" fill="#FFFFFF" sketch:type="MSShapeGroup" transform="translate(12.477216, 11.500000) rotate(-20.000000) translate(-12.477216, -11.500000) "></path>
        </g>
    </g>
</svg>