<?xml version="1.0" encoding="UTF-8" standalone="no"?>
<svg width="25px" height="25px" viewBox="0 0 25 25" version="1.1" xmlns="http://www.w3.org/2000/svg" xmlns:xlink="http://www.w3.org/1999/xlink" xmlns:sketch="http://www.bohemiancoding.com/sketch/ns">
    <!-- Generator: Sketch 3.3.3 (12081) - http://www.bohemiancoding.com/sketch -->
    <title>icon_bewaartip</title>
    <desc>Created with Sketch.</desc>
    <defs></defs>
    <g id="Groente--en-Fruitkalender" stroke="none" stroke-width="1" fill="none" fill-rule="evenodd" sketch:type="MSPage">
        <g id="Oval-124-Copy-4-+-Rectangle-269-Copy" sketch:type="MSLayerGroup">
            <circle id="Oval-124-Copy-4" fill="#BED603" sketch:type="MSShapeGroup" cx="12.5" cy="12.5" r="12.5"></circle>
            <path d="M7,6.00010618 C7,4.89547804 7.90017617,4 8.99201702,4 L16.007983,4 C17.1081436,4 18,4.89005841 18,6.00010618 L18,18.9998938 C18,20.104522 17.0998238,21 16.007983,21 L8.99201702,21 C7.8918564,21 7,20.1099416 7,18.9998938 L7,6.00010618 Z M9,6.99850233 C9,6.44704472 9.4469499,6 10.0024408,6 L10.4975592,6 C11.051192,6 11.5,6.44748943 11.5,6.99850233 L11.5,18.0014977 C11.5,18.5529553 11.0530501,19 10.4975592,19 L10.0024408,19 C9.44880801,19 9,18.5525106 9,18.0014977 L9,6.99850233 Z M13.5,6.99850233 C13.5,6.44704472 13.9469499,6 14.5024408,6 L14.9975592,6 C15.551192,6 16,6.44748943 16,6.99850233 L16,18.0014977 C16,18.5529553 15.5530501,19 14.9975592,19 L14.5024408,19 C13.948808,19 13.5,18.5525106 13.5,18.0014977 L13.5,6.99850233 Z" id="Rectangle-269-Copy" fill="#FFFFFF" sketch:type="MSShapeGroup"></path>
        </g>
    </g>
</svg>