<?xml version="1.0" encoding="utf-8"?>
<!-- Generator: Adobe Illustrator 16.0.3, SVG Export Plug-In . SVG Version: 6.00 Build 0)  -->
<!DOCTYPE svg PUBLIC "-//W3C//DTD SVG 1.1//EN" "http://www.w3.org/Graphics/SVG/1.1/DTD/svg11.dtd">
<svg version="1.1" id="Capa_1" xmlns="http://www.w3.org/2000/svg" xmlns:xlink="http://www.w3.org/1999/xlink" x="0px" y="0px"
	 width="50px" height="50px" viewBox="-177.894 540.106 50 50" enable-background="new -177.894 540.106 50 50"
	 xml:space="preserve">
<g>
	<path d="M-127.894,577.772c0,1.111-0.308,2.141-0.802,3.047l-15.787-17.898l15.616-13.846c0.607,0.977,0.974,2.125,0.974,3.365
		V577.772L-127.894,577.772z M-152.894,566.17l21.729-19.267c-0.892-0.495-1.896-0.798-2.979-0.798h-37.5
		c-1.084,0-2.089,0.303-2.977,0.798L-152.894,566.17z M-146.836,565.004l-5.03,4.462c-0.294,0.26-0.661,0.39-1.028,0.39
		s-0.734-0.13-1.028-0.39l-5.031-4.462l-15.987,18.127c0.958,0.609,2.081,0.975,3.296,0.975h37.5c1.214,0,2.338-0.365,3.296-0.975
		L-146.836,565.004z M-176.921,549.074c-0.607,0.977-0.974,2.125-0.974,3.365v25.332c0,1.111,0.307,2.141,0.803,3.047l15.785-17.902
		L-176.921,549.074z"/>
</g>
</svg>
