<?xml version="1.0" encoding="utf-8"?>
<!-- Generator: Adobe Illustrator 16.0.3, SVG Export Plug-In . SVG Version: 6.00 Build 0)  -->
<!DOCTYPE svg PUBLIC "-//W3C//DTD SVG 1.1//EN" "http://www.w3.org/Graphics/SVG/1.1/DTD/svg11.dtd">
<svg version="1.1" id="Capa_1" xmlns="http://www.w3.org/2000/svg" xmlns:xlink="http://www.w3.org/1999/xlink" x="0px" y="0px"
	 width="33px" height="50px" viewBox="0 0 33 50" enable-background="new 0 0 33 50" xml:space="preserve">
<g>
	<path d="M16.5,0C7.402,0,0,7.42,0,16.538c0,3.674,2.34,9.66,7.153,18.307c3.404,6.114,6.753,11.214,6.894,11.427L16.5,50
		l2.453-3.729c0.141-0.213,3.49-5.311,6.895-11.427C30.66,26.198,33,20.212,33,16.538C33.001,7.42,25.598,0,16.5,0z M16.5,24.999
		c-4.723,0-8.553-3.838-8.553-8.572c0-4.733,3.83-8.573,8.553-8.573c4.724,0,8.553,3.84,8.553,8.573
		C25.053,21.161,21.224,24.999,16.5,24.999z"/>
</g>
</svg>
