<?xml version="1.0" encoding="utf-8"?>
<!-- Generator: Adobe Illustrator 16.0.3, SVG Export Plug-In . SVG Version: 6.00 Build 0)  -->
<!DOCTYPE svg PUBLIC "-//W3C//DTD SVG 1.1//EN" "http://www.w3.org/Graphics/SVG/1.1/DTD/svg11.dtd">
<svg version="1.1" id="Capa_1" xmlns="http://www.w3.org/2000/svg" xmlns:xlink="http://www.w3.org/1999/xlink" x="0px" y="0px"
	 width="40px" height="50px" viewBox="0 0 40 50" enable-background="new 0 0 40 50" xml:space="preserve">
<g>
	<g>
		<path d="M36.549,5.889h-6.757v-4.34C29.792,0.676,29.079,0,28.196,0c-0.086,0-0.144,0.027-0.171,0.057
			C27.996,0.029,27.939,0,27.911,0h-15.88h-0.114h-0.114c-0.884,0-1.568,0.676-1.568,1.549v4.34H3.45C1.511,5.889,0,7.381,0,9.297
			v2.479v3.098h2.994v31.746C2.994,48.535,4.476,50,6.415,50h27.171c1.938,0,3.449-1.465,3.449-3.381V14.873H40v-3.098V9.297
			C39.999,7.381,38.487,5.889,36.549,5.889z M13.371,3.1h13.258v2.789H13.371V3.1z M33.869,46.619c0,0.197-0.085,0.281-0.285,0.281
			H6.414c-0.2,0-0.286-0.084-0.286-0.281V14.873h27.741V46.619z M36.834,11.775H3.164V9.297c0-0.197,0.086-0.311,0.286-0.311h33.101
			c0.198,0,0.285,0.111,0.285,0.311v2.479H36.834z"/>
		<rect x="25.744" y="18.508" width="3.164" height="25.633"/>
		<rect x="18.445" y="18.508" width="3.164" height="25.633"/>
		<rect x="11.147" y="18.508" width="3.165" height="25.633"/>
	</g>
</g>
</svg>
