<svg height="67" viewBox="0 0 67 67" width="67" xmlns="http://www.w3.org/2000/svg"><path d="M43.527 41.34c-.278 0-.478.078-.6.244-.12.156-.18.424-.18.796v.896h1.543v-.896c0-.372-.062-.64-.185-.796-.116-.166-.313-.244-.578-.244zm-6.018-.03c.233 0 .416.075.543.23.123.153.185.382.185.68v4.585c0 .286-.053.487-.153.61-.1.128-.256.19-.47.19-.148 0-.287-.033-.42-.096-.136-.063-.275-.172-.416-.314v-5.53c.118-.123.238-.214.36-.272.12-.06.243-.085.37-.085zm5.238 3.348v1.672c0 .468.057.792.17.974.118.18.313.27.592.27.29 0 .49-.077.606-.23.114-.153.175-.49.175-1.013v-.404h1.796v.456c0 .91-.217 1.596-.657 2.06-.436.458-1.09.686-1.96.686-.78 0-1.397-.242-1.846-.73-.448-.487-.676-1.158-.676-2.015v-3.986c0-.768.25-1.398.742-1.882.493-.485 1.128-.727 1.91-.727.8 0 1.414.225 1.844.674.43.448.642 1.093.642 1.935v2.264h-3.338zm-3.125 3.837c-.27.336-.67.5-1.187.5-.343 0-.646-.06-.912-.19-.267-.13-.52-.328-.746-.602v.68h-1.764v-12.03h1.764v3.874c.237-.27.485-.478.748-.617.267-.142.534-.21.805-.21.555 0 .976.188 1.266.564.294.38.438.933.438 1.66v4.926c0 .628-.137 1.11-.41 1.445zm-7.665.39v-.977c-.325.36-.658.636-1.01.822-.348.19-.685.282-1.013.282-.405 0-.705-.13-.913-.396-.2-.266-.305-.658-.305-1.19v-7.42h1.744v6.808c0 .21.038.362.108.457.077.096.196.142.358.142.128 0 .292-.062.488-.188.197-.125.375-.283.542-.475v-6.745H33.7v8.878h-1.742zM25.916 38.6v10.284h-1.968V38.6h-2.034v-1.748h6.036V38.6h-2.034zm8.078-5.622s12.08.018 13.514 1.45c1.44 1.435 1.455 8.514 1.455 8.555 0 0-.012 7.117-1.455 8.556C46.074 52.97 33.994 53 33.994 53s-12.08-.03-13.516-1.462c-1.438-1.435-1.44-8.502-1.44-8.556 0-.04.003-7.12 1.44-8.555 1.438-1.43 13.516-1.45 13.516-1.45zm9.526-3.723h-1.966v-1.08c-.358.397-.736.703-1.13.91-.392.207-.77.31-1.14.31-.458 0-.797-.145-1.027-.436-.23-.292-.345-.728-.345-1.312v-8.172h1.962v7.497c0 .23.045.4.127.502.08.104.217.156.4.156.143 0 .327-.068.548-.205.22-.137.423-.312.605-.527v-7.422h1.966v9.78zm-10.673-1.667c.14.147.34.22.6.22.266 0 .476-.076.634-.224.158-.152.236-.358.236-.618V21.64c0-.215-.08-.388-.24-.52-.16-.13-.37-.196-.63-.196-.24 0-.434.065-.585.196-.147.132-.224.305-.224.52v5.326c0 .267.072.473.21.622zm-1.44-7.685c.53-.45 1.242-.674 2.133-.674.812 0 1.48.236 2 .71.518.473.778 1.083.778 1.828v5.05c0 .837-.255 1.492-.762 1.97-.513.475-1.212.713-2.106.713-.858 0-1.547-.245-2.064-.735-.513-.492-.772-1.153-.772-1.984v-5.067c0-.76.263-1.362.794-1.81zM25.263 16h-2.23l2.635 8.003v5.252h2.213v-5.5L30.454 16h-2.25l-1.366 5.298h-.14L25.263 16zM34 64C17.432 64 4 50.568 4 34 4 17.43 17.432 4 34 4s30 13.43 30 30c0 16.568-13.432 30-30 30z" fill-rule="evenodd" clip-rule="evenodd" fill="#CF3427"/></svg>