<?xml version="1.0" encoding="utf-8"?>
<!-- Generator: Adobe Illustrator 16.0.3, SVG Export Plug-In . SVG Version: 6.00 Build 0)  -->
<!DOCTYPE svg PUBLIC "-//W3C//DTD SVG 1.1//EN" "http://www.w3.org/Graphics/SVG/1.1/DTD/svg11.dtd">
<svg version="1.1" id="Capa_1" xmlns="http://www.w3.org/2000/svg" xmlns:xlink="http://www.w3.org/1999/xlink" x="0px" y="0px"
	 width="50px" height="50px" viewBox="0.445 595.14 50 50" enable-background="new 0.445 595.14 50 50" xml:space="preserve">
<g id="Close">
	<path d="M31.387,620.14l17.827-17.827c1.641-1.641,1.641-4.301,0-5.942c-1.641-1.641-4.302-1.641-5.942,0l-17.827,17.827
		L7.617,596.371c-1.641-1.641-4.301-1.641-5.942,0c-1.641,1.642-1.641,4.302,0,5.942l17.827,17.827L1.675,637.968
		c-1.641,1.641-1.641,4.302,0,5.942c1.641,1.641,4.301,1.641,5.942,0l17.827-17.827l17.827,17.827c1.641,1.641,4.301,1.641,5.942,0
		c1.641-1.642,1.641-4.302,0-5.942L31.387,620.14z"/>
</g>
</svg>
