<?xml version="1.0" encoding="utf-8"?>
<!-- Generator: Adobe Illustrator 16.0.3, SVG Export Plug-In . SVG Version: 6.00 Build 0)  -->
<!DOCTYPE svg PUBLIC "-//W3C//DTD SVG 1.1//EN" "http://www.w3.org/Graphics/SVG/1.1/DTD/svg11.dtd">
<svg version="1.1" id="Capa_1" xmlns="http://www.w3.org/2000/svg" xmlns:xlink="http://www.w3.org/1999/xlink" x="0px" y="0px"
	 width="50px" height="50px" viewBox="0.445 595.14 50 50" enable-background="new 0.445 595.14 50 50" xml:space="preserve">
<g id="Settings">
	<g>
		<path d="M50.288,617.365c-0.08-0.703-0.898-1.231-1.607-1.231c-2.291,0-4.324-1.345-5.177-3.426
			c-0.871-2.131-0.309-4.616,1.398-6.183c0.538-0.49,0.603-1.312,0.152-1.885c-1.173-1.488-2.505-2.834-3.961-4
			c-0.57-0.457-1.406-0.393-1.9,0.154c-1.49,1.65-4.167,2.264-6.235,1.4c-2.152-0.906-3.51-3.086-3.377-5.428
			c0.043-0.736-0.494-1.375-1.227-1.461c-1.867-0.215-3.75-0.223-5.624-0.014c-0.725,0.08-1.263,0.703-1.238,1.43
			c0.081,2.318-1.292,4.461-3.423,5.334c-2.044,0.835-4.702,0.227-6.189-1.408c-0.491-0.539-1.313-0.605-1.887-0.159
			c-1.498,1.175-2.861,2.521-4.044,3.999c-0.461,0.573-0.394,1.406,0.15,1.899c1.74,1.575,2.302,4.083,1.398,6.237
			c-0.863,2.055-2.998,3.38-5.44,3.38c-0.792-0.025-1.357,0.507-1.444,1.228c-0.22,1.878-0.223,3.791-0.011,5.686
			c0.079,0.705,0.923,1.229,1.64,1.229c2.177-0.055,4.267,1.293,5.144,3.426c0.874,2.131,0.312,4.615-1.398,6.183
			c-0.535,0.491-0.603,1.312-0.152,1.884c1.162,1.479,2.495,2.826,3.956,4.001c0.572,0.462,1.406,0.396,1.903-0.15
			c1.496-1.655,4.172-2.267,6.232-1.402c2.158,0.903,3.515,3.084,3.382,5.427c-0.043,0.735,0.497,1.376,1.227,1.46
			c0.956,0.111,1.917,0.167,2.88,0.167c0.915,0,1.831-0.051,2.745-0.152c0.725-0.08,1.262-0.704,1.238-1.432
			c-0.084-2.316,1.292-4.459,3.421-5.331c2.057-0.841,4.704-0.226,6.191,1.409c0.494,0.537,1.311,0.602,1.887,0.157
			c1.496-1.173,2.855-2.518,4.045-3.999c0.461-0.572,0.396-1.406-0.15-1.899c-1.74-1.575-2.305-4.083-1.4-6.237
			c0.85-2.027,2.904-3.389,5.115-3.389l0.309,0.008c0.717,0.059,1.377-0.494,1.463-1.225C50.497,621.17,50.5,619.258,50.288,617.365
			z M25.485,628.533c-4.599,0-8.339-3.741-8.339-8.34c0-4.598,3.741-8.338,8.339-8.338c4.598,0,8.338,3.74,8.338,8.338
			C33.823,624.792,30.083,628.533,25.485,628.533z"/>
	</g>
</g>
</svg>
