<?xml version="1.0" encoding="UTF-8" standalone="no"?>
<svg width="61px" height="62px" viewBox="0 0 61 62" version="1.1" xmlns="http://www.w3.org/2000/svg" xmlns:xlink="http://www.w3.org/1999/xlink" xmlns:sketch="http://www.bohemiancoding.com/sketch/ns">
    <!-- Generator: Sketch 3.3.3 (12081) - http://www.bohemiancoding.com/sketch -->
    <title>Fill 1 + Fill 2 + Fill 11 Copy</title>
    <desc>Created with Sketch.</desc>
    <defs></defs>
    <g id="Page-1" stroke="none" stroke-width="1" fill="none" fill-rule="evenodd" sketch:type="MSPage">
        <g id="Fill-1-+-Fill-2-+-Fill-11-Copy" sketch:type="MSLayerGroup">
            <path d="M0.637,36.45 L38.769,1.608 C36.14,0.867 33.371,0.462 30.507,0.462 C29.762,0.462 29.025,0.498 28.292,0.551 L0.128,31.374 C0.157,33.105 0.331,34.802 0.637,36.45 Z M0.919,23.915 L26.256,0.764 C13.784,2.51 3.746,11.823 0.919,23.915 Z M4.14,45.96 L47.922,5.954 C45.57,4.306 42.976,2.984 40.201,2.05 L2.691,43.1 C3.124,44.082 3.61,45.036 4.14,45.96 Z" id="Fill-1" fill="#AECD39" sketch:type="MSShapeGroup"></path>
            <path d="M10.054,53.333 L54.734,12.508 C53.053,10.291 51.076,8.314 48.86,6.633 L8.034,51.311 C8.676,52.017 9.35,52.692 10.054,53.333 Z M18.27,58.673 L59.313,21.169 C58.381,18.394 57.059,15.798 55.413,13.446 L15.41,57.226 C16.335,57.756 17.289,58.24 18.27,58.673 Z M60.594,35.122 L37.463,60.436 C49.541,57.605 58.842,47.579 60.594,35.122 Z M30.001,61.232 L60.809,33.083 C60.861,32.345 60.898,31.603 60.898,30.853 C60.898,27.992 60.495,25.227 59.756,22.603 L24.921,60.724 C26.572,61.03 28.269,61.204 30.001,61.232 Z" id="Fill-2" fill="#005B6C" sketch:type="MSShapeGroup"></path>
        </g>
    </g>
</svg>