<?xml version="1.0" encoding="UTF-8" standalone="no"?>
<svg width="199px" height="62px" viewBox="0 0 199 62" version="1.1" xmlns="http://www.w3.org/2000/svg" xmlns:xlink="http://www.w3.org/1999/xlink" xmlns:sketch="http://www.bohemiancoding.com/sketch/ns">
    <!-- Generator: Sketch 3.3.3 (12081) - http://www.bohemiancoding.com/sketch -->
    <title>Fill 1 + Fill 2 + Fill 11</title>
    <desc>Created with Sketch.</desc>
    <defs></defs>
    <g id="Page-1" stroke="none" stroke-width="1" fill="none" fill-rule="evenodd" sketch:type="MSPage">
        <g id="Fill-1-+-Fill-2-+-Fill-11" sketch:type="MSLayerGroup">
            <path d="M0.637,36.45 L38.769,1.608 C36.14,0.867 33.371,0.462 30.507,0.462 C29.762,0.462 29.025,0.498 28.292,0.551 L0.128,31.374 C0.157,33.105 0.331,34.802 0.637,36.45 Z M0.919,23.915 L26.256,0.764 C13.784,2.51 3.746,11.823 0.919,23.915 Z M4.14,45.96 L47.922,5.954 C45.57,4.306 42.976,2.984 40.201,2.05 L2.691,43.1 C3.124,44.082 3.61,45.036 4.14,45.96 Z" id="Fill-1" fill="#AECD39" sketch:type="MSShapeGroup"></path>
            <path d="M10.054,53.333 L54.734,12.508 C53.053,10.291 51.076,8.314 48.86,6.633 L8.034,51.311 C8.676,52.017 9.35,52.692 10.054,53.333 Z M18.27,58.673 L59.313,21.169 C58.381,18.394 57.059,15.798 55.413,13.446 L15.41,57.226 C16.335,57.756 17.289,58.24 18.27,58.673 Z M60.594,35.122 L37.463,60.436 C49.541,57.605 58.842,47.579 60.594,35.122 Z M30.001,61.232 L60.809,33.083 C60.861,32.345 60.898,31.603 60.898,30.853 C60.898,27.992 60.495,25.227 59.756,22.603 L24.921,60.724 C26.572,61.03 28.269,61.204 30.001,61.232 Z" id="Fill-2" fill="#005B6C" sketch:type="MSShapeGroup"></path>
            <path d="M94.489,29.459 L94.489,18.002 C94.489,16.502 93.758,15.926 92.528,15.926 C91.644,15.926 90.605,16.464 90.144,16.964 C90.144,16.964 90.183,17.579 90.183,18.002 L90.183,29.459 L84.108,29.459 L84.108,18.002 C84.108,16.502 83.416,15.926 82.186,15.926 C81.225,15.926 80.263,16.426 79.802,16.925 L79.802,29.459 L73.727,29.459 L73.727,16.271 L73.074,11.427 L78.841,10.735 L79.071,12.619 L79.11,12.619 C79.994,11.734 81.917,10.658 84.454,10.658 C86.646,10.658 88.26,11.504 89.222,12.888 L89.26,12.888 C90.567,11.543 92.528,10.658 94.835,10.658 C98.064,10.658 100.563,12.389 100.563,16.732 L100.563,29.459 L94.489,29.459 Z M108.175,9.467 C106.138,9.467 104.484,7.774 104.484,5.775 C104.484,3.776 106.138,2.123 108.175,2.123 C110.213,2.123 111.866,3.776 111.866,5.775 C111.866,7.774 110.213,9.467 108.175,9.467 Z M105.1,29.459 L105.1,16.271 L104.446,11.427 L111.174,10.735 L111.174,29.459 L105.1,29.459 Z M115.634,29.459 L115.634,8.62 L114.98,3.814 L121.708,3.122 L121.708,29.459 L115.634,29.459 Z M129.32,9.467 C127.283,9.467 125.63,7.774 125.63,5.775 C125.63,3.776 127.283,2.123 129.32,2.123 C131.359,2.123 133.012,3.776 133.012,5.775 C133.012,7.774 131.359,9.467 129.32,9.467 Z M126.245,29.459 L126.245,16.271 L125.592,11.427 L132.32,10.735 L132.32,29.459 L126.245,29.459 Z M144.199,15.579 C142.586,15.579 141.893,16.849 141.777,17.963 L146.314,17.963 C146.314,16.617 145.623,15.579 144.199,15.579 Z M145.084,29.959 C138.51,29.959 135.818,26.191 135.818,19.886 C135.818,14.465 139.355,10.696 144.393,10.696 C149.928,10.696 151.506,14.656 151.506,19.309 L151.506,21.424 L141.74,21.424 C141.971,23.615 143.432,24.653 145.66,24.653 C147.584,24.653 148.391,24.269 149.813,23.73 L151.621,28.306 C149.352,29.382 147.699,29.959 145.084,29.959 Z M166.461,29.844 L166.23,27.96 L166.191,27.96 C165.307,28.844 163.463,29.92 160.924,29.92 C157.771,29.92 155.119,28.19 155.119,23.846 L155.119,16.271 L154.465,11.427 L161.193,10.735 L161.193,22.577 C161.193,24.076 161.885,24.653 163.115,24.653 C164.076,24.653 165.039,24.153 165.5,23.653 L165.5,16.271 L164.846,11.427 L171.574,10.735 L171.574,24.307 L172.229,29.151 L166.461,29.844 Z M85.338,43.79 C84.416,43.367 83.685,43.021 82.378,43.021 C80.532,43.021 78.879,44.213 78.879,47.097 C78.879,50.058 80.378,51.326 82.032,51.326 C83.493,51.326 84.031,51.096 85.3,50.596 L87.068,55.556 C85.223,56.362 83.685,56.9 81.378,56.9 C75.727,56.9 72.689,53.21 72.689,47.251 C72.689,40.483 77.572,37.639 82.263,37.639 C84.185,37.639 85.377,37.869 87.146,38.523 L85.338,43.79 Z M97.372,42.56 C95.757,42.56 95.065,43.829 94.95,44.943 L99.486,44.943 C99.486,43.598 98.794,42.56 97.372,42.56 Z M98.256,56.939 C91.682,56.939 88.99,53.172 88.99,46.866 C88.99,41.445 92.527,37.677 97.564,37.677 C103.101,37.677 104.677,41.638 104.677,46.289 L104.677,48.404 L94.911,48.404 C95.142,50.596 96.603,51.634 98.833,51.634 C100.755,51.634 101.563,51.249 102.985,50.711 L104.792,55.286 C102.523,56.362 100.871,56.939 98.256,56.939 Z M118.518,56.439 L118.518,44.982 C118.518,43.482 117.826,42.906 116.595,42.906 C115.634,42.906 114.673,43.444 114.211,43.944 L114.211,56.439 L108.137,56.439 L108.137,43.252 L107.483,38.407 L113.25,37.716 L113.481,39.6 L113.52,39.6 C114.404,38.715 116.249,37.639 118.787,37.639 C122.016,37.639 124.593,39.369 124.593,43.714 L124.593,56.439 L118.518,56.439 Z M135.551,56.9 C131.359,56.9 129.59,54.056 129.59,50.096 L129.59,42.829 L126.707,42.829 L126.707,38.831 L129.59,38.1 L129.59,34.832 L135.666,34.14 L135.666,38.1 L140.625,38.1 L140.625,42.829 L135.666,42.829 L135.666,48.635 C135.666,51.019 136.281,51.557 137.703,51.557 C138.664,51.557 139.01,51.364 139.934,50.979 L141.471,55.478 C139.549,56.439 138.279,56.9 135.551,56.9 Z M150.697,44.867 L150.697,56.439 L144.623,56.439 L144.623,43.252 L143.969,38.407 L149.736,37.716 L150.045,40.368 L150.082,40.368 C151.045,38.984 152.543,37.639 155.695,37.639 L155.695,42.982 C153.352,42.982 151.967,43.29 150.697,44.867 Z M165.23,49.442 L164.346,49.519 C163.385,49.596 162.578,50.134 162.578,51.172 C162.578,52.018 163.078,52.748 163.961,52.748 C164.615,52.748 164.961,52.557 165.23,52.402 L165.23,49.442 Z M166.076,56.824 L165.846,54.863 L165.807,54.863 C164.922,55.671 163.5,56.9 161.424,56.9 C158.695,56.9 156.734,55.132 156.734,52.018 C156.734,48.365 159.348,46.751 163.154,46.404 L165.23,46.213 L165.23,45.251 C165.23,43.829 164.461,42.867 162.578,42.867 C161.193,42.867 160.348,43.252 159.348,43.867 L157.156,39.869 C159.078,38.484 160.848,37.639 163.924,37.639 C168.922,37.639 171.189,40.215 171.189,44.29 L171.189,51.287 L171.844,56.132 L166.076,56.824 Z M182.723,49.442 L181.84,49.519 C180.877,49.596 180.07,50.134 180.07,51.172 C180.07,52.018 180.57,52.748 181.455,52.748 C182.107,52.748 182.455,52.557 182.723,52.402 L182.723,49.442 Z M183.568,56.824 L183.338,54.863 L183.301,54.863 C182.416,55.671 180.994,56.9 178.918,56.9 C176.188,56.9 174.227,55.132 174.227,52.018 C174.227,48.365 176.842,46.751 180.646,46.404 L182.723,46.213 L182.723,45.251 C182.723,43.829 181.955,42.867 180.07,42.867 C178.686,42.867 177.84,43.252 176.842,43.867 L174.648,39.869 C176.572,38.484 178.34,37.639 181.416,37.639 C186.414,37.639 188.684,40.215 188.684,44.29 L188.684,51.287 L189.336,56.132 L183.568,56.824 Z M192.68,56.439 L192.68,35.601 L192.027,30.795 L198.756,30.103 L198.756,56.439 L192.68,56.439 Z" id="Fill-11" fill="#005B6C" sketch:type="MSShapeGroup"></path>
        </g>
    </g>
</svg>