<?xml version="1.0" encoding="UTF-8" standalone="no"?>
<svg width="21px" height="22px" viewBox="0 0 21 22" version="1.1" xmlns="http://www.w3.org/2000/svg" xmlns:xlink="http://www.w3.org/1999/xlink" xmlns:sketch="http://www.bohemiancoding.com/sketch/ns">
    <!-- Generator: Sketch 3.3.1 (12002) - http://www.bohemiancoding.com/sketch -->
    <title>Imported Layers Copy</title>
    <desc>Created with Sketch.</desc>
    <defs></defs>
    <g id="Afvalscheidingswijzer" stroke="none" stroke-width="1" fill="none" fill-rule="evenodd" sketch:type="MSPage">
        <g id="ASW---3---Resultaat" sketch:type="MSArtboardGroup" transform="translate(-464.000000, -694.000000)" fill="#80AC16">
            <g id="Zoek" sketch:type="MSLayerGroup" transform="translate(240.000000, 329.000000)">
                <path d="M243.368822,374.529327 L227.361142,365.64218 C226.012609,364.90274 224.723356,365.21682 224.723356,367.2157 L224.723356,384.137193 C224.723356,386.140233 226.012609,386.450153 227.359756,385.710713 L243.325489,376.637753 C243.685676,376.453673 244.082609,376.187087 244.077062,375.62098 C244.066316,375.018473 243.727622,374.718953 243.368822,374.529327 Z M236.6,374.475467 L233.124533,374.475467 L233.124533,371 L231.475467,371 L231.475467,374.475467 L228,374.475467 L228,376.1244 L231.475467,376.1244 L231.475467,379.6 L233.124533,379.6 L233.124533,376.1244 L236.6,376.1244 L236.6,374.475467 Z" id="Imported-Layers-Copy" sketch:type="MSShapeGroup"></path>
            </g>
        </g>
    </g>
</svg>