<?xml version="1.0" encoding="utf-8"?>
<!-- Generator: Adobe Illustrator 16.0.3, SVG Export Plug-In . SVG Version: 6.00 Build 0)  -->
<!DOCTYPE svg PUBLIC "-//W3C//DTD SVG 1.1//EN" "http://www.w3.org/Graphics/SVG/1.1/DTD/svg11.dtd">
<svg version="1.1" id="Capa_1" xmlns="http://www.w3.org/2000/svg" xmlns:xlink="http://www.w3.org/1999/xlink" x="0px" y="0px"
	 width="50px" height="50px" viewBox="0.445 595.14 50 50" enable-background="new 0.445 595.14 50 50" xml:space="preserve">
<g>
	<g>
		<path fill="#010002" d="M50.421,634.6c0.106,0.812-0.141,1.519-0.741,2.118l-7.04,6.992c-0.318,0.353-0.732,0.652-1.244,0.899
			c-0.512,0.247-1.015,0.407-1.508,0.478c-0.036,0-0.142,0.009-0.318,0.026c-0.176,0.018-0.405,0.026-0.688,0.026
			c-0.671,0-1.756-0.115-3.256-0.344c-1.5-0.23-3.334-0.795-5.504-1.695c-2.17-0.9-4.632-2.252-7.384-4.052
			c-2.752-1.801-5.681-4.272-8.787-7.415c-2.47-2.437-4.517-4.768-6.14-6.992c-1.623-2.225-2.929-4.281-3.917-6.17
			c-0.988-1.889-1.729-3.603-2.224-5.139c-0.494-1.535-0.829-2.859-1.005-3.973c-0.177-1.111-0.247-1.986-0.212-2.621
			s0.053-0.988,0.053-1.06c0.07-0.494,0.229-0.997,0.476-1.509c0.247-0.513,0.547-0.928,0.9-1.245l7.04-7.044
			c0.494-0.495,1.059-0.742,1.694-0.742c0.458,0,0.864,0.133,1.217,0.397s0.653,0.591,0.9,0.979l5.664,10.752
			c0.317,0.565,0.406,1.184,0.265,1.854c-0.141,0.672-0.441,1.236-0.9,1.695l-2.594,2.596c-0.07,0.07-0.132,0.186-0.185,0.344
			c-0.053,0.159-0.08,0.291-0.08,0.397c0.141,0.741,0.459,1.589,0.953,2.542c0.423,0.848,1.076,1.881,1.958,3.1
			c0.882,1.218,2.135,2.621,3.758,4.211c1.588,1.624,3,2.887,4.234,3.787c1.235,0.899,2.268,1.562,3.097,1.985
			c0.83,0.424,1.464,0.68,1.906,0.768l0.661,0.134c0.071,0,0.186-0.027,0.344-0.08c0.159-0.054,0.273-0.115,0.344-0.186l3.017-3.072
			c0.635-0.564,1.376-0.848,2.223-0.848c0.6,0,1.076,0.105,1.429,0.318h0.053l10.216,6.038
			C49.839,633.311,50.28,633.894,50.421,634.6z"/>
	</g>
</g>
</svg>
