<?xml version="1.0" encoding="utf-8"?>
<!-- Generator: Adobe Illustrator 16.0.3, SVG Export Plug-In . SVG Version: 6.00 Build 0)  -->
<!DOCTYPE svg PUBLIC "-//W3C//DTD SVG 1.1//EN" "http://www.w3.org/Graphics/SVG/1.1/DTD/svg11.dtd">
<svg version="1.1" id="Capa_1" xmlns="http://www.w3.org/2000/svg" xmlns:xlink="http://www.w3.org/1999/xlink" x="0px" y="0px"
	 width="50px" height="50px" viewBox="0.445 595.14 50 50" enable-background="new 0.445 595.14 50 50" xml:space="preserve">
<g id="Search">
	<path d="M49.221,638.008l-10.862-10.861c-0.058-0.059-0.125-0.099-0.186-0.152c2.138-3.242,3.385-7.123,3.385-11.297
		c0-11.354-9.204-20.557-20.557-20.557s-20.557,9.203-20.557,20.557s9.203,20.557,20.556,20.557c4.174,0,8.055-1.248,11.297-3.385
		c0.054,0.061,0.094,0.128,0.152,0.186l10.862,10.862c1.632,1.632,4.277,1.632,5.909,0
		C50.852,642.285,50.852,639.639,49.221,638.008z M21.001,629.127c-7.417,0-13.431-6.012-13.431-13.43s6.013-13.431,13.431-13.431
		c7.417,0,13.43,6.013,13.43,13.431S28.418,629.127,21.001,629.127z"/>
</g>
</svg>
