<?xml version="1.0" encoding="UTF-8" standalone="no"?>
<svg width="17px" height="22px" viewBox="0 0 17 22" version="1.1" xmlns="http://www.w3.org/2000/svg" xmlns:xlink="http://www.w3.org/1999/xlink" xmlns:sketch="http://www.bohemiancoding.com/sketch/ns">
    <!-- Generator: Sketch 3.3.1 (12002) - http://www.bohemiancoding.com/sketch -->
    <title>Fill 19 Copy 5 + Fill 19 Copy 6</title>
    <desc>Created with Sketch.</desc>
    <defs></defs>
    <g id="Groente--en-Fruitkalender" stroke="none" stroke-width="1" fill="none" fill-rule="evenodd" sketch:type="MSPage">
        <g id="GFK---1---Landing" sketch:type="MSArtboardGroup" transform="translate(-1095.000000, -701.000000)" fill="#00647D">
            <g id="Group" sketch:type="MSLayerGroup" transform="translate(0.000000, 587.000000)">
                <g transform="translate(730.000000, 101.000000)" id="Fill-19-Copy-5-+-Fill-19-Copy-6" sketch:type="MSShapeGroup">
                    <g transform="translate(365.000000, 13.000000)">
                        <path d="M16.1180928,6.69066651 L8.88928014,0.664304557 C8.75730742,0.555258062 8.59652998,0.5 8.43575253,0.5 C8.27497508,0.5 8.11419764,0.555258062 7.98340063,0.664304557 L0.753412266,6.69066651 C0.453901812,6.93991564 0.413633969,7.38668296 0.664058804,7.68501771 C0.914189712,7.98599779 1.35860562,8.02597171 1.65811607,7.7758408 L8.43575253,2.12570394 L15.2122133,7.7758408 C15.5128994,8.02508993 15.9573153,7.98482209 16.2074463,7.68501771 C16.4578711,7.38668296 16.4176032,6.93991564 16.1180928,6.69066651 L16.1180928,6.69066651 Z" id="Fill-19-Copy-5"></path>
                        <path d="M16.1180928,15.7493335 L8.88928014,21.7756955 C8.75730742,21.884742 8.59652998,21.9400001 8.43575253,21.9400001 C8.27497508,21.9400001 8.11419764,21.884742 7.98340063,21.7756955 L0.753412266,15.7493335 C0.453901812,15.5000844 0.413633969,15.0533171 0.664058804,14.7549824 C0.914189712,14.4540023 1.35860562,14.4140284 1.65811607,14.6641593 L8.43575253,20.3142961 L15.2122133,14.6641593 C15.5128994,14.4149101 15.9573153,14.455178 16.2074463,14.7549824 C16.4578711,15.0533171 16.4176032,15.5000844 16.1180928,15.7493335 L16.1180928,15.7493335 Z" id="Fill-19-Copy-6"></path>
                    </g>
                </g>
            </g>
        </g>
    </g>
</svg>