<?xml version="1.0" encoding="utf-8"?>
<!-- Generator: Adobe Illustrator 16.0.3, SVG Export Plug-In . SVG Version: 6.00 Build 0)  -->
<!DOCTYPE svg PUBLIC "-//W3C//DTD SVG 1.1//EN" "http://www.w3.org/Graphics/SVG/1.1/DTD/svg11.dtd">
<svg version="1.1" id="Capa_1" xmlns="http://www.w3.org/2000/svg" xmlns:xlink="http://www.w3.org/1999/xlink" x="0px" y="0px"
	 width="50px" height="50px" viewBox="0 0 50 50" enable-background="new 0 0 50 50" xml:space="preserve">
<g>
	<g>
		<path d="M25.001,26.49c6.19,0,11.21-5.93,11.21-13.245C36.211,3.101,31.192,0,25.001,0C18.809,0,13.79,3.101,13.79,13.245
			C13.79,20.56,18.809,26.49,25.001,26.49z"/>
		<path d="M49.756,45.987L44.1,33.125c-0.259-0.588-0.714-1.077-1.279-1.374l-8.777-4.613c-0.193-0.101-0.427-0.082-0.602,0.051
			c-2.482,1.896-5.402,2.898-8.44,2.898c-3.04,0-5.959-1.002-8.442-2.898c-0.175-0.133-0.409-0.152-0.603-0.051L7.18,31.752
			c-0.566,0.297-1.02,0.785-1.278,1.374L0.245,45.987c-0.391,0.886-0.311,1.901,0.213,2.715C0.983,49.514,1.868,50,2.829,50h44.342
			c0.961,0,1.847-0.486,2.371-1.299C50.065,47.887,50.146,46.873,49.756,45.987z"/>
	</g>
</g>
</svg>
