<?xml version="1.0" encoding="UTF-8" standalone="no"?>
<svg width="21px" height="20px" viewBox="0 0 21 20" version="1.1" xmlns="http://www.w3.org/2000/svg" xmlns:xlink="http://www.w3.org/1999/xlink" xmlns:sketch="http://www.bohemiancoding.com/sketch/ns">
    <!-- Generator: Sketch 3.3.1 (12002) - http://www.bohemiancoding.com/sketch -->
    <title>Imported Layers</title>
    <desc>Created with Sketch.</desc>
    <defs></defs>
    <g id="Afvalscheidingswijzer" stroke="none" stroke-width="1" fill="none" fill-rule="evenodd" sketch:type="MSPage">
        <g id="ASW---3---Resultaat" sketch:type="MSArtboardGroup" transform="translate(-465.000000, -500.000000)" fill="#F59130">
            <g id="Zoek" sketch:type="MSLayerGroup" transform="translate(240.000000, 329.000000)">
                <g id="Imported-Layers" transform="translate(225.000000, 170.000000)" sketch:type="MSShapeGroup">
                    <path d="M9.25268212,1.70829747 L0.36553545,17.7159775 C-0.37390455,19.0645108 -0.0598245502,20.3537641 1.93905545,20.3537641 L18.8605488,20.3537641 C20.8635888,20.3537641 21.1735088,19.0645108 20.4340688,17.7173641 L11.3611088,1.75163081 C11.1770288,1.39144414 10.9104421,0.994510808 10.3443354,1.00005747 C9.74182878,1.01080414 9.44230878,1.34949747 9.25268212,1.70829747 L9.25268212,1.70829747 Z M9.22980212,6.83376414 L11.3098021,6.83376414 L11.3098021,14.1137641 L9.22980212,14.1137641 L9.22980212,6.83376414 Z M9.22980212,15.6737641 L11.3098021,15.6737641 L11.3098021,17.7537641 L9.22980212,17.7537641 L9.22980212,15.6737641 Z"></path>
                </g>
            </g>
        </g>
    </g>
</svg>