<?xml version="1.0" encoding="utf-8"?>
<!-- Generator: Adobe Illustrator 16.0.3, SVG Export Plug-In . SVG Version: 6.00 Build 0)  -->
<!DOCTYPE svg PUBLIC "-//W3C//DTD SVG 1.1//EN" "http://www.w3.org/Graphics/SVG/1.1/DTD/svg11.dtd">
<svg version="1.1" id="Capa_1" xmlns="http://www.w3.org/2000/svg" xmlns:xlink="http://www.w3.org/1999/xlink" x="0px" y="0px"
	 width="23px" height="50px" viewBox="-205.444 512.557 23 50" enable-background="new -205.444 512.557 23 50"
	 xml:space="preserve">
<g>
	<path id="Facebook" d="M-200.444,522.24c0,1.26,0,6.884,0,6.884h-5v8.433h5v25h10v-25h7.037c0,0,0.653-4.051,0.963-8.463
		c-0.892,0-8,0-8,0s0-4.898,0-5.756c0-0.861,1.335-2.018,2.436-2.018c1.099,0,3.417,0,5.564,0c0-1.146,0-5.106,0-8.764
		c-2.866,0-6.127,0-7.565,0C-200.725,512.557-200.444,520.983-200.444,522.24z"/>
</g>
</svg>
