<?xml version="1.0" encoding="utf-8"?>
<!-- Generator: Adobe Illustrator 16.0.3, SVG Export Plug-In . SVG Version: 6.00 Build 0)  -->
<!DOCTYPE svg PUBLIC "-//W3C//DTD SVG 1.1//EN" "http://www.w3.org/Graphics/SVG/1.1/DTD/svg11.dtd">
<svg version="1.1" id="Capa_1" xmlns="http://www.w3.org/2000/svg" xmlns:xlink="http://www.w3.org/1999/xlink" x="0px" y="0px"
	 width="23px" height="50px" viewBox="0 0 23 50" enable-background="new 0 0 23 50" xml:space="preserve">
<g>
	<path id="Facebook" d="M5,9.684c0,1.26,0,6.883,0,6.883H0V25h5v25h10V25h7.037c0,0,0.652-4.051,0.963-8.463c-0.893,0-8,0-8,0
		s0-4.898,0-5.756c0-0.861,1.335-2.018,2.436-2.018c1.1,0,3.418,0,5.564,0C23,7.617,23,3.658,23,0c-2.866,0-6.127,0-7.564,0
		C4.719,0,5,8.426,5,9.684z"/>
</g>
</svg>
