<?xml version="1.0" encoding="utf-8"?>
<!-- Generator: Adobe Illustrator 16.0.3, SVG Export Plug-In . SVG Version: 6.00 Build 0)  -->
<!DOCTYPE svg PUBLIC "-//W3C//DTD SVG 1.1//EN" "http://www.w3.org/Graphics/SVG/1.1/DTD/svg11.dtd">
<svg version="1.1" id="Capa_1" xmlns="http://www.w3.org/2000/svg" xmlns:xlink="http://www.w3.org/1999/xlink" x="0px" y="0px"
	 width="49px" height="50px" viewBox="-372.086 345.914 49 50" enable-background="new -372.086 345.914 49 50"
	 xml:space="preserve">
<g>
	<g>
		<path d="M-340.193,345.914h-12.02c-5.356,0-9.064,1.165-12.401,3.9c-2.624,2.246-4.19,5.51-4.19,8.732
			c0,4.965,3.815,10.24,10.886,10.24c0.68,0,1.432-0.068,2.096-0.131l-0.098,0.236c-0.284,0.676-0.554,1.312-0.554,2.307
			c0,1.938,0.942,3.132,1.852,4.286l0.115,0.146l-0.203,0.015c-2.919,0.198-8.354,0.567-12.323,2.988
			c-4.688,2.765-5.053,6.788-5.053,7.954c0,4.641,4.36,9.326,14.101,9.326c11.327,0,17.253-6.199,17.253-12.322
			c0.001-4.529-2.677-6.766-5.518-9.139l-2.397-1.85c-0.741-0.609-1.663-1.367-1.663-2.771c0-1.379,0.922-2.29,1.736-3.094
			l0.085-0.085c2.588-2.022,5.522-4.315,5.522-9.276c0-4.987-3.142-7.564-4.652-8.804h3.989c0.048,0,0.097-0.013,0.138-0.04
			l3.436-2.143c0.098-0.061,0.144-0.18,0.111-0.29C-339.975,345.99-340.078,345.914-340.193,345.914z M-354.769,393.181
			c-6.904,0-11.543-3.199-11.543-7.961c0-3.108,1.897-5.367,5.634-6.711c2.993-0.999,6.855-1.049,6.894-1.049
			c0.655,0,0.983,0,1.506,0.064c4.831,3.411,7.153,5.203,7.153,8.613C-345.126,390.483-348.821,393.181-354.769,393.181z
			 M-354.834,366.959c-5.794,0-8.199-7.556-8.199-11.603c0-2.057,0.472-3.636,1.441-4.828c1.053-1.307,2.856-2.151,4.594-2.151
			c5.32,0,8.262,7.094,8.262,11.997c0,0.773,0,3.127-1.639,4.762C-351.477,366.227-353.269,366.959-354.834,366.959z"/>
		<path d="M-323.346,369.267h-6.334v-6.262c0-0.143-0.117-0.258-0.26-0.258h-2.725c-0.144,0-0.261,0.115-0.261,0.258v6.262h-6.302
			c-0.143,0-0.26,0.115-0.26,0.258v2.738c0,0.143,0.117,0.258,0.26,0.258h6.302v6.303c0,0.142,0.117,0.258,0.261,0.258h2.725
			c0.143,0,0.26-0.116,0.26-0.258v-6.303h6.334c0.143,0,0.26-0.115,0.26-0.259v-2.737
			C-323.086,369.381-323.202,369.267-323.346,369.267z"/>
	</g>
</g>
</svg>
