<?xml version="1.0" encoding="utf-8"?>
<!-- Generator: Adobe Illustrator 16.0.3, SVG Export Plug-In . SVG Version: 6.00 Build 0)  -->
<!DOCTYPE svg PUBLIC "-//W3C//DTD SVG 1.1//EN" "http://www.w3.org/Graphics/SVG/1.1/DTD/svg11.dtd">
<svg version="1.1" id="Capa_1" xmlns="http://www.w3.org/2000/svg" xmlns:xlink="http://www.w3.org/1999/xlink" x="0px" y="0px"
	 width="49px" height="50px" viewBox="0 0 49 50" enable-background="new 0 0 49 50" xml:space="preserve">
<g>
	<g>
		<path d="M31.893,0h-12.02c-5.356,0-9.064,1.164-12.401,3.9c-2.624,2.246-4.19,5.51-4.19,8.733c0,4.965,3.815,10.239,10.886,10.239
			c0.68,0,1.432-0.066,2.096-0.131l-0.098,0.236c-0.284,0.676-0.554,1.312-0.554,2.307c0,1.939,0.942,3.133,1.852,4.287l0.115,0.146
			l-0.203,0.014C14.457,29.931,9.022,30.3,5.053,32.72C0.365,35.485,0,39.51,0,40.676C0,45.316,4.36,50,14.101,50
			c11.327,0,17.252-6.197,17.252-12.32c0.002-4.53-2.677-6.769-5.518-9.142l-2.397-1.85c-0.741-0.609-1.663-1.367-1.663-2.771
			c0-1.379,0.922-2.289,1.736-3.094l0.085-0.084c2.588-2.021,5.522-4.315,5.522-9.276c0-4.988-3.143-7.565-4.652-8.805h3.989
			c0.048,0,0.097-0.014,0.138-0.041l3.436-2.143c0.099-0.061,0.145-0.18,0.111-0.289C32.111,0.076,32.008,0,31.893,0z M17.317,47.27
			c-6.904,0-11.543-3.199-11.543-7.961c0-3.11,1.897-5.368,5.634-6.712c2.993-1,6.855-1.049,6.894-1.049
			c0.655,0,0.983,0,1.506,0.062c4.831,3.412,7.153,5.203,7.153,8.614C26.96,44.57,23.265,47.27,17.317,47.27z M17.252,21.046
			c-5.794,0-8.199-7.557-8.199-11.604c0-2.057,0.472-3.635,1.441-4.829c1.053-1.307,2.856-2.15,4.594-2.15
			c5.32,0,8.262,7.094,8.262,11.999c0,0.771,0,3.127-1.639,4.762C20.609,20.313,18.817,21.046,17.252,21.046z"/>
		<path d="M48.74,23.354h-6.334v-6.262c0-0.145-0.117-0.26-0.26-0.26h-2.726c-0.144,0-0.261,0.115-0.261,0.26v6.262h-6.303
			c-0.143,0-0.26,0.115-0.26,0.258v2.738c0,0.143,0.117,0.258,0.26,0.258h6.303v6.303c0,0.143,0.117,0.258,0.261,0.258h2.726
			c0.143,0,0.26-0.115,0.26-0.258v-6.303h6.334c0.143,0,0.26-0.115,0.26-0.26v-2.736C49,23.468,48.884,23.354,48.74,23.354z"/>
	</g>
</g>
</svg>
