<?xml version="1.0" encoding="utf-8"?>
<!-- Generator: Adobe Illustrator 16.0.3, SVG Export Plug-In . SVG Version: 6.00 Build 0)  -->
<!DOCTYPE svg PUBLIC "-//W3C//DTD SVG 1.1//EN" "http://www.w3.org/Graphics/SVG/1.1/DTD/svg11.dtd">
<svg version="1.1" id="Capa_1" xmlns="http://www.w3.org/2000/svg" xmlns:xlink="http://www.w3.org/1999/xlink" x="0px" y="0px"
	 width="50px" height="50px" viewBox="-371.802 346.198 50 50" enable-background="new -371.802 346.198 50 50"
	 xml:space="preserve">
<g>
	<path d="M-365.385,346.198h37.165c3.529,0,6.417,2.613,6.417,6.417v37.166c0,3.804-2.888,6.417-6.417,6.417h-37.165
		c-3.53,0-6.417-2.613-6.417-6.417v-37.166C-371.802,348.811-368.915,346.198-365.385,346.198L-365.385,346.198z M-335.38,351.752
		c-1.238,0-2.25,1.013-2.25,2.252v5.388c0,1.238,1.012,2.251,2.25,2.251h5.651c1.238,0,2.251-1.013,2.251-2.251v-5.388
		c0-1.239-1.013-2.252-2.251-2.252H-335.38L-335.38,351.752z M-327.454,367.342h-4.4c0.417,1.359,0.642,2.8,0.642,4.29
		c0,8.316-6.959,15.058-15.542,15.058s-15.542-6.741-15.542-15.058c0-1.491,0.225-2.931,0.642-4.29h-4.592v21.121
		c0,1.093,0.894,1.988,1.988,1.988h34.818c1.094,0,1.988-0.895,1.988-1.988L-327.454,367.342L-327.454,367.342z M-346.755,361.36
		c-5.546,0-10.042,4.355-10.042,9.729s4.496,9.729,10.042,9.729c5.545,0,10.042-4.355,10.042-9.729S-341.209,361.36-346.755,361.36z
		"/>
</g>
</svg>
