<?xml version="1.0" encoding="utf-8"?>
<!-- Generator: Adobe Illustrator 16.0.3, SVG Export Plug-In . SVG Version: 6.00 Build 0)  -->
<!DOCTYPE svg PUBLIC "-//W3C//DTD SVG 1.1//EN" "http://www.w3.org/Graphics/SVG/1.1/DTD/svg11.dtd">
<svg version="1.1" id="Capa_1" xmlns="http://www.w3.org/2000/svg" xmlns:xlink="http://www.w3.org/1999/xlink" x="0px" y="0px"
	 width="50px" height="50px" viewBox="0 0 50 50" enable-background="new 0 0 50 50" xml:space="preserve">
<g>
	<path d="M6.417,0h37.165c3.529,0,6.417,2.613,6.417,6.418v37.166c0,3.805-2.888,6.416-6.417,6.416H6.417
		C2.887,50,0,47.389,0,43.584V6.418C0,2.613,2.887,0,6.417,0L6.417,0z M36.422,5.555c-1.238,0-2.25,1.014-2.25,2.252v5.389
		c0,1.238,1.012,2.25,2.25,2.25h5.651c1.237,0,2.251-1.012,2.251-2.25V7.807c0-1.238-1.014-2.252-2.251-2.252H36.422L36.422,5.555z
		 M44.348,21.145h-4.399c0.417,1.359,0.642,2.801,0.642,4.291c0,8.314-6.959,15.057-15.542,15.057
		c-8.583,0-15.542-6.74-15.542-15.057c0-1.492,0.225-2.932,0.642-4.291H5.556v21.121c0,1.094,0.894,1.988,1.988,1.988h34.818
		c1.094,0,1.987-0.895,1.987-1.988L44.348,21.145L44.348,21.145z M25.047,15.162c-5.546,0-10.042,4.355-10.042,9.73
		c0,5.373,4.496,9.729,10.042,9.729c5.544,0,10.042-4.355,10.042-9.729C35.09,19.518,30.594,15.162,25.047,15.162z"/>
</g>
</svg>
