<?xml version="1.0" encoding="utf-8"?>
<!-- Generator: Adobe Illustrator 16.0.3, SVG Export Plug-In . SVG Version: 6.00 Build 0)  -->
<!DOCTYPE svg PUBLIC "-//W3C//DTD SVG 1.1//EN" "http://www.w3.org/Graphics/SVG/1.1/DTD/svg11.dtd">
<svg version="1.1" id="Capa_1" xmlns="http://www.w3.org/2000/svg" xmlns:xlink="http://www.w3.org/1999/xlink" x="0px" y="0px"
	 width="50px" height="50px" viewBox="-205.442 512.558 50 50" enable-background="new -205.442 512.558 50 50"
	 xml:space="preserve">
<g>
	<path id="LinkedIn" d="M-155.442,542.988v18.57h-10.717v-17.326c0-4.354-1.55-7.324-5.429-7.324c-2.961,0-4.724,2.002-5.499,3.938
		c-0.283,0.692-0.355,1.655-0.355,2.625v18.087h-10.72c0,0,0.145-29.347,0-32.388h10.719v4.591c-0.021,0.035-0.05,0.071-0.07,0.104
		h0.07v-0.104c1.424-2.204,3.968-5.351,9.661-5.351C-160.729,528.411-155.442,533.04-155.442,542.988z M-199.375,513.558
		c-3.667,0-6.066,2.416-6.066,5.595c0,3.108,2.33,5.599,5.924,5.599h0.072c3.738,0,6.063-2.489,6.063-5.599
		C-193.453,515.974-195.708,513.558-199.375,513.558z M-204.805,561.558h10.716v-32.388h-10.716V561.558z"/>
</g>
</svg>
