<?xml version="1.0" encoding="utf-8"?>
<!-- Generator: Adobe Illustrator 16.0.3, SVG Export Plug-In . SVG Version: 6.00 Build 0)  -->
<!DOCTYPE svg PUBLIC "-//W3C//DTD SVG 1.1//EN" "http://www.w3.org/Graphics/SVG/1.1/DTD/svg11.dtd">
<svg version="1.1" id="Capa_1" xmlns="http://www.w3.org/2000/svg" xmlns:xlink="http://www.w3.org/1999/xlink" x="0px" y="0px"
	 width="50px" height="50px" viewBox="0 0 50 50" enable-background="new 0 0 50 50" xml:space="preserve">
<g>
	<path id="LinkedIn" d="M49.999,30.43V49H39.281V31.674c0-4.354-1.549-7.324-5.428-7.324c-2.961,0-4.725,2.002-5.5,3.938
		c-0.283,0.691-0.354,1.656-0.354,2.625V49h-10.72c0,0,0.145-29.348,0-32.389h10.719v4.592c-0.021,0.035-0.051,0.07-0.07,0.104h0.07
		v-0.104c1.424-2.205,3.968-5.352,9.66-5.352C44.712,15.852,49.999,20.48,49.999,30.43z M6.066,1C2.399,1,0,3.416,0,6.594
		c0,3.109,2.33,5.6,5.924,5.6h0.072c3.738,0,6.063-2.488,6.063-5.6C11.988,3.416,9.733,1,6.066,1z M0.636,49h10.716V16.611H0.636V49
		z"/>
</g>
</svg>
