<?xml version="1.0" encoding="utf-8"?>
<!-- Generator: Adobe Illustrator 16.0.3, SVG Export Plug-In . SVG Version: 6.00 Build 0)  -->
<!DOCTYPE svg PUBLIC "-//W3C//DTD SVG 1.1//EN" "http://www.w3.org/Graphics/SVG/1.1/DTD/svg11.dtd">
<svg version="1.1" id="Capa_1" xmlns="http://www.w3.org/2000/svg" xmlns:xlink="http://www.w3.org/1999/xlink" x="0px" y="0px"
	 width="50px" height="50px" viewBox="0 0 50 50" enable-background="new 0 0 50 50" xml:space="preserve">
<g>
	<g>
		<path fill="#010002" d="M49.998,9.35c-1.84,0.824-3.814,1.383-5.891,1.631c2.119-1.279,3.74-3.311,4.51-5.725
			c-1.986,1.188-4.182,2.047-6.518,2.516C40.227,5.756,37.564,4.5,34.613,4.5c-5.666,0-10.257,4.637-10.257,10.352
			c0,0.812,0.09,1.604,0.266,2.359C16.099,16.779,8.54,12.658,3.482,6.393C2.598,7.92,2.095,9.699,2.095,11.596
			c0,3.596,1.812,6.766,4.562,8.619c-1.681-0.057-3.262-0.523-4.646-1.301v0.129c0,5.016,3.537,9.201,8.227,10.154
			c-0.859,0.232-1.766,0.361-2.703,0.361c-0.663,0-1.303-0.064-1.931-0.191c1.306,4.117,5.093,7.109,9.58,7.191
			c-3.509,2.775-7.933,4.426-12.738,4.426c-0.828,0-1.644-0.053-2.446-0.143C4.54,43.783,9.93,45.5,15.722,45.5
			c18.868,0,29.182-15.777,29.182-29.461l-0.035-1.34C46.883,13.248,48.625,11.426,49.998,9.35z"/>
	</g>
</g>
</svg>
