<?xml version="1.0" encoding="utf-8"?>
<!-- Generator: Adobe Illustrator 16.0.3, SVG Export Plug-In . SVG Version: 6.00 Build 0)  -->
<!DOCTYPE svg PUBLIC "-//W3C//DTD SVG 1.1//EN" "http://www.w3.org/Graphics/SVG/1.1/DTD/svg11.dtd">
<svg version="1.1" id="Capa_1" xmlns="http://www.w3.org/2000/svg" xmlns:xlink="http://www.w3.org/1999/xlink" x="0px" y="0px"
	 width="50px" height="50px" viewBox="0.445 595.14 50 50" enable-background="new 0.445 595.14 50 50" xml:space="preserve">
<g>
	<g>
		<path fill="#010002" d="M50.445,604.491c-1.84,0.824-3.815,1.382-5.89,1.631c2.119-1.28,3.74-3.311,4.509-5.725
			c-1.987,1.187-4.181,2.047-6.518,2.515c-1.872-2.016-4.534-3.271-7.486-3.271c-5.665,0-10.257,4.637-10.257,10.352
			c0,0.811,0.09,1.603,0.266,2.359c-8.523-0.433-16.082-4.554-21.14-10.818c-0.884,1.526-1.387,3.305-1.387,5.203
			c0,3.594,1.812,6.764,4.562,8.618c-1.681-0.057-3.262-0.524-4.646-1.3v0.129c0,5.016,3.537,9.201,8.227,10.154
			c-0.859,0.232-1.766,0.362-2.703,0.362c-0.663,0-1.303-0.066-1.931-0.192c1.306,4.116,5.093,7.109,9.58,7.191
			c-3.509,2.775-7.933,4.425-12.738,4.425c-0.828,0-1.644-0.051-2.446-0.142c4.54,2.942,9.93,4.658,15.722,4.658
			c18.868,0,29.182-15.776,29.182-29.46l-0.035-1.34C47.329,608.389,49.073,606.567,50.445,604.491z"/>
	</g>
</g>
</svg>
