<?xml version="1.0" encoding="utf-8"?>
<!-- Generator: Adobe Illustrator 16.0.3, SVG Export Plug-In . SVG Version: 6.00 Build 0)  -->
<!DOCTYPE svg PUBLIC "-//W3C//DTD SVG 1.1//EN" "http://www.w3.org/Graphics/SVG/1.1/DTD/svg11.dtd">
<svg version="1.1" id="Capa_1" xmlns="http://www.w3.org/2000/svg" xmlns:xlink="http://www.w3.org/1999/xlink" x="0px" y="0px"
	 width="42px" height="50px" viewBox="0 0 42 50" enable-background="new 0 0 42 50" xml:space="preserve">
<g>
	<path id="YouTube" d="M35.525,36.572H32.76l0.014-1.594c0-0.707,0.586-1.287,1.302-1.287h0.176c0.718,0,1.306,0.58,1.306,1.287
		L35.525,36.572z M25.15,33.158c-0.7,0-1.274,0.467-1.274,1.039v7.752c0,0.572,0.574,1.039,1.274,1.039
		c0.705,0,1.279-0.467,1.279-1.039v-7.752C26.43,33.625,25.855,33.158,25.15,33.158z M42,28.822v14.746
		C42,47.105,38.908,50,35.128,50H6.872C3.091,50,0,47.105,0,43.568V28.822c0-3.539,3.091-6.434,6.872-6.434h28.256
		C38.908,22.391,42,25.283,42,28.822z M8.757,45.17L8.755,29.635l3.503,0.002v-2.301L2.92,27.32v2.264l2.915,0.008V45.17H8.757z
		 M19.257,31.949h-2.921v8.295c0,1.199,0.074,1.801-0.004,2.012c-0.237,0.645-1.305,1.328-1.721,0.068
		c-0.071-0.219-0.008-0.883-0.009-2.021l-0.012-8.354h-2.904l0.009,8.221c0.002,1.262-0.029,2.199,0.01,2.629
		c0.071,0.752,0.046,1.631,0.751,2.135c1.314,0.938,3.832-0.141,4.462-1.482l-0.005,1.713l2.345,0.004L19.257,31.949L19.257,31.949z
		 M28.6,41.449l-0.008-6.904c-0.002-2.633-1.986-4.207-4.679-2.078l0.012-5.133l-2.917,0.004l-0.014,17.717l2.398-0.033l0.217-1.104
		C26.676,46.707,28.604,44.795,28.6,41.449z M37.738,40.533l-2.189,0.012c-0.001,0.086-0.004,0.186-0.005,0.295v1.211
		c0,0.648-0.541,1.178-1.196,1.178h-0.43c-0.656,0-1.197-0.529-1.197-1.178v-0.133v-1.336v-1.719h5.014V36.99
		c0-1.369-0.035-2.736-0.15-3.518c-0.359-2.477-3.859-2.867-5.628-1.604c-0.556,0.396-0.979,0.928-1.226,1.639
		c-0.248,0.711-0.373,1.684-0.373,2.918v4.117C30.359,47.387,38.738,46.42,37.738,40.533z M26.506,18.186
		c0.151,0.363,0.385,0.656,0.703,0.879c0.312,0.219,0.714,0.33,1.195,0.33c0.421,0,0.794-0.113,1.119-0.346
		c0.324-0.232,0.597-0.578,0.82-1.041l-0.057,1.137h3.256V5.412H30.98V16.1c0,0.58-0.48,1.053-1.068,1.053
		c-0.584,0-1.066-0.473-1.066-1.053V5.412h-2.675v9.264c0,1.18,0.022,1.967,0.058,2.365C26.264,17.436,26.355,17.816,26.506,18.186z
		 M16.641,10.428c0-1.318,0.111-2.348,0.332-3.09c0.221-0.74,0.62-1.334,1.196-1.781c0.575-0.451,1.312-0.678,2.207-0.678
		c0.753,0,1.397,0.146,1.938,0.436c0.541,0.287,0.959,0.662,1.248,1.125c0.295,0.465,0.496,0.943,0.603,1.432
		c0.108,0.494,0.163,1.24,0.163,2.248v3.475c0,1.273-0.053,2.211-0.151,2.807s-0.313,1.15-0.642,1.668
		c-0.325,0.514-0.745,0.898-1.254,1.143c-0.514,0.248-1.101,0.369-1.766,0.369c-0.742,0-1.367-0.102-1.882-0.314
		c-0.517-0.211-0.916-0.529-1.201-0.951c-0.288-0.424-0.49-0.938-0.611-1.541c-0.123-0.6-0.181-1.504-0.181-2.707L16.641,10.428
		L16.641,10.428z M19.191,15.883c0,0.777,0.583,1.414,1.294,1.414s1.292-0.637,1.292-1.414V8.572c0-0.777-0.583-1.412-1.292-1.412
		s-1.294,0.635-1.294,1.412V15.883z M10.182,19.574h3.071l0.003-10.533l3.629-9.021h-3.358l-1.93,6.701L9.641,0H6.317l3.86,9.047
		L10.182,19.574z"/>
</g>
</svg>
