<?xml version="1.0" encoding="utf-8"?>
<!-- Generator: Adobe Illustrator 16.0.3, SVG Export Plug-In . SVG Version: 6.00 Build 0)  -->
<!DOCTYPE svg PUBLIC "-//W3C//DTD SVG 1.1//EN" "http://www.w3.org/Graphics/SVG/1.1/DTD/svg11.dtd">
<svg version="1.1" id="Capa_1" xmlns="http://www.w3.org/2000/svg" xmlns:xlink="http://www.w3.org/1999/xlink" x="0px" y="0px"
	 width="42px" height="50px" viewBox="-375.5 342.5 42 50" enable-background="new -375.5 342.5 42 50" xml:space="preserve">
<g>
	<path id="YouTube" d="M-339.974,379.073h-2.766l0.013-1.594c0-0.708,0.586-1.288,1.302-1.288h0.176c0.718,0,1.306,0.58,1.306,1.288
		L-339.974,379.073z M-350.349,375.658c-0.701,0-1.275,0.467-1.275,1.04v7.751c0,0.572,0.574,1.039,1.275,1.039
		c0.705,0,1.279-0.467,1.279-1.039v-7.751C-349.07,376.125-349.645,375.658-350.349,375.658z M-333.5,371.322v14.746
		c0,3.537-3.092,6.432-6.872,6.432h-28.256c-3.781,0-6.872-2.895-6.872-6.432v-14.746c0-3.538,3.091-6.433,6.872-6.433h28.256
		C-336.592,364.89-333.5,367.784-333.5,371.322z M-366.743,387.67l-0.002-15.535l3.503,0.002v-2.302l-9.338-0.015v2.264l2.915,0.008
		v15.578H-366.743z M-356.243,374.449h-2.921v8.295c0,1.2,0.074,1.801-0.004,2.012c-0.237,0.644-1.305,1.327-1.721,0.069
		c-0.071-0.22-0.008-0.884-0.009-2.023l-0.012-8.353h-2.904l0.009,8.221c0.002,1.261-0.029,2.199,0.01,2.628
		c0.071,0.753,0.046,1.632,0.751,2.135c1.314,0.938,3.832-0.14,4.462-1.481l-0.005,1.712l2.345,0.003L-356.243,374.449
		L-356.243,374.449z M-346.901,383.949l-0.007-6.904c-0.002-2.632-1.986-4.207-4.679-2.078l0.012-5.133l-2.917,0.004l-0.014,17.717
		l2.398-0.034l0.218-1.104C-348.824,389.207-346.896,387.295-346.901,383.949z M-337.761,383.033l-2.19,0.012
		c-0.001,0.086-0.004,0.186-0.005,0.294v1.212c0,0.648-0.541,1.178-1.197,1.178h-0.429c-0.657,0-1.198-0.529-1.198-1.178v-0.134
		v-1.334v-1.72h5.014v-1.873c0-1.368-0.035-2.736-0.15-3.518c-0.359-2.475-3.86-2.867-5.628-1.602
		c-0.555,0.396-0.979,0.926-1.225,1.637c-0.249,0.712-0.373,1.684-0.373,2.919v4.116
		C-345.141,389.887-336.762,388.919-337.761,383.033z M-348.994,360.685c0.151,0.363,0.385,0.657,0.703,0.88
		c0.313,0.219,0.714,0.329,1.195,0.329c0.421,0,0.794-0.112,1.119-0.346c0.324-0.231,0.597-0.577,0.82-1.04l-0.056,1.137h3.256
		v-13.733h-2.563V358.6c0,0.579-0.48,1.053-1.068,1.053c-0.584,0-1.066-0.474-1.066-1.053v-10.688h-2.675v9.263
		c0,1.181,0.022,1.967,0.058,2.366C-349.236,359.936-349.144,360.316-348.994,360.685z M-358.859,352.928
		c0-1.318,0.111-2.348,0.332-3.09c0.221-0.74,0.62-1.334,1.196-1.782c0.575-0.45,1.312-0.677,2.207-0.677
		c0.753,0,1.398,0.146,1.938,0.435c0.542,0.288,0.959,0.663,1.249,1.126c0.294,0.465,0.496,0.942,0.602,1.431
		c0.109,0.495,0.163,1.241,0.163,2.249v3.473c0,1.274-0.052,2.211-0.151,2.807c-0.099,0.597-0.313,1.15-0.642,1.669
		c-0.325,0.513-0.745,0.897-1.253,1.142c-0.514,0.248-1.102,0.369-1.767,0.369c-0.742,0-1.367-0.102-1.882-0.314
		c-0.517-0.211-0.916-0.529-1.201-0.952c-0.288-0.423-0.49-0.938-0.611-1.54c-0.123-0.601-0.181-1.504-0.181-2.707L-358.859,352.928
		L-358.859,352.928z M-356.309,358.383c0,0.778,0.583,1.413,1.294,1.413s1.292-0.635,1.292-1.413v-7.311
		c0-0.777-0.582-1.412-1.292-1.412s-1.294,0.635-1.294,1.412V358.383z M-365.318,362.074h3.071l0.003-10.533l3.629-9.022h-3.358
		l-1.93,6.702l-1.956-6.721h-3.324l3.86,9.047L-365.318,362.074z"/>
</g>
</svg>
