<svg height="67" viewBox="0 0 67 67" width="67" xmlns="http://www.w3.org/2000/svg"><path d="M32.963 35.002c1.61-1.608 1.734-3.845 1.734-5.102 0-5.05-2.99-12.875-8.796-12.875-1.81 0-3.77.91-4.9 2.31-1.18 1.468-1.532 3.353-1.532 5.162 0 4.7 2.714 12.465 8.746 12.465 1.734 0 3.62-.855 4.75-1.96zM4 34c0 7.405 2.683 14.184 7.13 19.415.838-1.41 2.14-2.797 4.065-3.937 4.348-2.664 10.204-3.017 13.37-3.218-.98-1.257-2.11-2.59-2.11-4.774 0-1.182.35-1.885.703-2.715-.78.077-1.533.152-2.237.152-7.413 0-11.61-5.53-11.61-10.983 0-3.218 1.483-6.792 4.473-9.378 3.996-3.284 8.746-3.845 12.516-3.845h14.4l-4.474 2.516h-4.322c1.607 1.33 4.95 4.127 4.95 9.45 0 5.177-2.94 7.614-5.855 9.925-.93.906-1.96 1.886-1.96 3.418 0 1.533 1.03 2.39 1.81 3.017l2.512 1.96c3.092 2.564 5.88 4.95 5.88 9.777 0 3.182-1.483 6.376-4.378 8.826-1.557.255-3.153.388-4.78.393 2.937-1.29 4.46-3.647 4.46-6.48 0-3.57-2.287-5.454-7.615-9.25-.554-.05-.906-.05-1.61-.05-.627 0-4.397.127-7.337 1.106-1.533.553-6.006 2.237-6.006 7.213 0 .54.058 1.064.17 1.568C8.775 52.645 4 43.88 4 34zm57.73-11.468c.44 1.063.82 2.16 1.14 3.28-.318-1.12-.7-2.216-1.14-3.28zM34 64C17.432 64 4 50.568 4 34 4 17.43 17.432 4 34 4c12.507 0 23.227 7.653 27.73 18.532h-5.966v-7.814h-3.35v7.814h-7.813v3.28h7.815v7.883h3.35v-7.882h7.103C63.605 28.415 64 31.163 64 34c0 16.568-13.432 30-30 30z" fill-rule="evenodd" clip-rule="evenodd" fill="#D6492F"/></svg>