<svg height="67" viewBox="0 0 67 67" width="67" xmlns="http://www.w3.org/2000/svg"><path d="M50.837 48.137V36.425c0-6.275-3.35-9.195-7.816-9.195-3.603 0-5.218 1.983-6.118 3.374V27.71h-6.79c.09 1.917 0 20.427 0 20.427h6.79V36.73c0-.61.044-1.22.224-1.656.49-1.22 1.607-2.483 3.482-2.483 2.458 0 3.44 1.874 3.44 4.62v10.928h6.79zM22.96 24.922c2.366 0 3.84-1.57 3.84-3.53-.043-2.004-1.474-3.53-3.796-3.53s-3.84 1.525-3.84 3.53c0 1.96 1.473 3.53 3.752 3.53h.043zM34 64C17.432 64 4 50.568 4 34 4 17.43 17.432 4 34 4s30 13.43 30 30c0 16.568-13.432 30-30 30zm-7.646-15.863V27.71h-6.79v20.427h6.79z" fill-rule="evenodd" clip-rule="evenodd" fill="#007AB9"/></svg>