<svg height="67" viewBox="0 0 67 67" width="67" xmlns="http://www.w3.org/2000/svg"><path d="M38.167 22.283c-2.62.953-4.274 3.41-4.086 6.1l.064 1.04-1.048-.128c-3.813-.487-7.145-2.14-9.974-4.915l-1.383-1.377-.357 1.017c-.754 2.267-.272 4.66 1.3 6.27.837.89.648 1.018-.797.488-.503-.17-.943-.296-.985-.233-.145.15.357 2.076.755 2.84.545 1.06 1.655 2.096 2.87 2.71l1.028.488-1.215.02c-1.173 0-1.215.022-1.09.468.42 1.378 2.075 2.84 3.92 3.476l1.298.444-1.13.678c-1.677.976-3.647 1.526-5.617 1.567-.945.02-1.72.106-1.72.17 0 .21 2.557 1.397 4.044 1.864 4.463 1.376 9.765.782 13.746-1.57 2.83-1.673 5.657-5 6.978-8.22.713-1.715 1.425-4.85 1.425-6.354 0-.975.063-1.102 1.236-2.267.69-.68 1.34-1.42 1.466-1.632.21-.403.188-.403-.88-.043-1.78.636-2.033.55-1.152-.402.65-.678 1.425-1.907 1.425-2.267 0-.063-.315.042-.672.233-.377.21-1.215.53-1.844.72l-1.13.36-1.028-.7c-.566-.38-1.36-.805-1.78-.932-1.07-.296-2.705-.254-3.67.085zM34 64C17.432 64 4 50.568 4 34 4 17.43 17.432 4 34 4s30 13.43 30 30c0 16.568-13.432 30-30 30z" fill-rule="evenodd" clip-rule="evenodd" fill="#598DCA"/></svg>